<svg width="100" height="100" viewBox="0 0 100 100" fill="none" xmlns="http://www.w3.org/2000/svg">
<circle cx="50" cy="50" r="50" fill="black"/>
<path d="M55.6148 75L46.0388 56.712H45.9668V75H29.9828V24.024H53.7428C57.8708 24.024 61.3988 24.768 64.3268 26.256C67.2548 27.696 69.4388 29.688 70.8788 32.232C72.3668 34.728 73.1108 37.56 73.1108 40.728C73.1108 44.136 72.1508 47.16 70.2308 49.8C68.3588 52.44 65.6468 54.336 62.0948 55.488L73.1828 75H55.6148ZM45.9668 46.056H52.3028C53.8388 46.056 54.9908 45.72 55.7588 45.048C56.5268 44.328 56.9108 43.224 56.9108 41.736C56.9108 40.392 56.5028 39.336 55.6868 38.568C54.9188 37.8 53.7908 37.416 52.3028 37.416H45.9668V46.056Z" fill="white"/>
</svg>
